HIERARCHY
ROOT Hips
{
 OFFSET 0.000000 0.000000 0.000000
 CHANNELS 6 Xposition Yposition Zposition Yrotation Xrotation Zrotation
 JOINT Chest
 {
  OFFSET 0.000000 9.585900 0.002600
  CHANNELS 3 Yrotation Xrotation Zrotation
  JOINT Chest2
  {
   OFFSET 0.000000 9.601200 -0.005300
   CHANNELS 3 Yrotation Xrotation Zrotation
   JOINT Chest3
   {
    OFFSET 0.000000 9.561800 0.000000
    CHANNELS 3 Yrotation Xrotation Zrotation
    JOINT Chest4
    {
     OFFSET 0.000000 9.552100 0.000000
     CHANNELS 3 Yrotation Xrotation Zrotation
     JOINT Neck
     {
      OFFSET 0.000000 14.453000 0.000000
      CHANNELS 3 Yrotation Xrotation Zrotation
      JOINT Head
      {
       OFFSET 0.000000 8.936500 -0.011300
       CHANNELS 3 Yrotation Xrotation Zrotation
       End Site
       {
        OFFSET 0.000000 17.073600 -0.006000
       }
      }
     }
     JOINT RightCollar
     {
      OFFSET -2.921100 9.558500 0.000000
      CHANNELS 3 Yrotation Xrotation Zrotation
      JOINT RightShoulder
      {
       OFFSET -13.519700 0.000000 0.000000
       CHANNELS 3 Yrotation Xrotation Zrotation
       JOINT RightElbow
       {
        OFFSET 0.000000 -29.696600 0.000000
        CHANNELS 3 Yrotation Xrotation Zrotation
        JOINT RightWrist
        {
         OFFSET 0.000000 -24.004700 0.000000
         CHANNELS 3 Yrotation Xrotation Zrotation
         End Site
         {
          OFFSET 0.000000 -17.728500 0.000000
         }
        }
       }
      }
     }
     JOINT LeftCollar
     {
      OFFSET 2.921100 9.558500 0.000000
      CHANNELS 3 Yrotation Xrotation Zrotation
      JOINT LeftShoulder
      {
       OFFSET 13.519700 0.000000 0.000000
       CHANNELS 3 Yrotation Xrotation Zrotation
       JOINT LeftElbow
       {
        OFFSET 0.000000 -29.696600 0.000000
        CHANNELS 3 Yrotation Xrotation Zrotation
        JOINT LeftWrist
        {
         OFFSET 0.000000 -24.004700 0.000000
         CHANNELS 3 Yrotation Xrotation Zrotation
         End Site
         {
          OFFSET 0.000000 -17.728500 0.000000
         }
        }
       }
      }
     }
    }
   }
  }
 }
 JOINT RightHip
 {
  OFFSET -7.771700 -0.012900 -0.001300
  CHANNELS 3 Yrotation Xrotation Zrotation
  JOINT RightKnee
  {
   OFFSET 0.000000 -40.869800 0.001200
   CHANNELS 3 Yrotation Xrotation Zrotation
   JOINT RightAnkle
   {
    OFFSET 0.000000 -39.717900 0.002100
    CHANNELS 3 Yrotation Xrotation Zrotation
    JOINT RightToe
    {
     OFFSET 0.000000 -4.965400 11.033500
     CHANNELS 3 Yrotation Xrotation Zrotation
     End Site
     {
      OFFSET 0.000000 -1.423100 5.872300
     }
    }
   }
  }
 }
 JOINT LeftHip
 {
  OFFSET 7.771700 -0.012900 -0.001300
  CHANNELS 3 Yrotation Xrotation Zrotation
  JOINT LeftKnee
  {
   OFFSET 0.000000 -40.869800 0.001200
   CHANNELS 3 Yrotation Xrotation Zrotation
   JOINT LeftAnkle
   {
    OFFSET 0.000000 -39.717900 0.002100
    CHANNELS 3 Yrotation Xrotation Zrotation
    JOINT LeftToe
    {
     OFFSET 0.000000 -4.965400 11.033500
     CHANNELS 3 Yrotation Xrotation Zrotation
     End Site
     {
      OFFSET 0.000000 -1.423100 5.872300
     }
    }
   }
  }
 }
}
MOTION
Frames: 6
Frame Time: 0.008333
-71.645014 46.719129 -5.315942 175.938286 -30.806628 -2.989966 -0.200632 18.686358 1.060757 -0.108942 2.156831 0.146599 -0.090082 3.557646 0.225632 -0.302036 16.232951 1.005681 0.087970 16.876379 -2.485827 1.018190 -4.413865 -4.630684 1.171222 0.869860 -2.092490 6.143855 -7.368732 -16.077394 -43.865188 -54.737673 93.133003 -2.153365 4.647572 -20.124172 0.113988 -0.136973 2.697863 -7.621778 -3.551231 12.473629 61.850572 -69.782663 -100.196525 -0.308699 10.424982 12.405850 -5.228858 -55.905179 -5.616773 -155.656042 78.796828 -145.709568 -9.040042 -14.211608 -6.711864 0.033272 -0.100207 0.024721 -0.682014 -58.110616 10.916009 -117.900648 82.058835 -122.146835 7.045867 -7.681093 6.237435 0.021178 0.174072 -0.016403
-71.644190 46.714116 -5.311932 175.861574 -30.792762 -2.979554 -0.180940 18.674632 1.082865 -0.110724 2.155673 0.149880 -0.092660 3.556246 0.228095 -0.283784 16.230326 1.000066 0.089555 16.883329 -2.472046 0.993096 -4.382446 -4.538777 1.146159 0.876786 -2.069996 6.140427 -7.360285 -16.059216 -43.801296 -54.739236 93.089090 -2.188073 4.616178 -20.146279 0.073241 -0.157358 2.733659 -7.629771 -3.534974 12.488486 61.786084 -69.777720 -100.129965 -0.315750 10.442629 12.354080 -5.225802 -55.920219 -5.565494 -155.713417 78.818656 -145.752903 -9.036065 -14.196040 -6.729697 0.031825 -0.105805 0.013543 -0.668420 -58.128259 10.966444 -117.957291 82.057883 -122.203192 7.080776 -7.692819 6.233513 0.017838 0.173324 -0.014022
-71.642654 46.709385 -5.307460 175.807250 -30.777598 -2.978696 -0.234955 18.667524 1.100973 -0.046396 2.149614 0.136113 -0.082201 3.554854 0.224924 -0.290725 16.229004 1.005351 0.090990 16.890350 -2.458840 0.972260 -4.351150 -4.455909 1.125858 0.881073 -2.047871 6.134089 -7.355302 -16.043808 -43.715491 -54.774417 93.043716 -2.250985 4.571934 -20.173114 0.039017 -0.176603 2.762362 -7.637413 -3.518907 12.509140 61.730738 -69.770101 -100.075198 -0.321289 10.454351 12.313351 -5.238688 -55.934930 -5.523390 -155.650972 78.827725 -145.660276 -9.018005 -14.174402 -6.772878 0.053579 -0.119670 0.013574 -0.668353 -58.145986 11.016778 -117.992064 82.054277 -122.236919 7.092336 -7.705167 6.235915 0.029362 0.177091 -0.014698
-71.645267 46.706501 -5.305931 175.781593 -30.781199 -2.959214 -0.263760 18.676222 1.092398 -0.012520 2.144987 0.126180 -0.095319 3.554877 0.230179 -0.324355 16.226389 1.024278 0.094453 16.904956 -2.434348 0.991464 -4.344458 -4.477646 1.130550 0.884057 -2.046428 6.127045 -7.351056 -16.029315 -43.664641 -54.752777 93.002602 -2.248720 4.559583 -20.168013 0.034752 -0.193512 2.763941 -7.643241 -3.503826 12.536450 61.683650 -69.754964 -100.033105 -0.323932 10.462720 12.287004 -5.235241 -55.934119 -5.538627 -155.711641 78.838897 -145.723226 -8.990409 -14.159111 -6.783026 0.037657 -0.127927 0.004364 -0.646691 -58.142059 11.002247 -118.062887 82.059222 -122.300454 7.080351 -7.714090 6.224392 0.017353 0.178553 -0.011064
-71.647306 46.703516 -5.303133 175.761661 -30.778639 -2.938726 -0.294183 18.680231 1.081124 -0.022361 2.142516 0.127528 -0.097068 3.553659 0.232193 -0.332109 16.223617 1.032865 0.097388 16.917840 -2.413259 0.986758 -4.315186 -4.420477 1.146402 0.883674 -2.057444 6.135778 -7.347414 -16.033809 -43.671922 -54.718875 92.996529 -2.249933 4.557854 -20.162367 0.028759 -0.212267 2.763801 -7.643547 -3.488696 12.565783 61.639840 -69.733047 -99.999111 -0.320570 10.465596 12.273638 -5.253490 -55.940092 -5.544945 -155.776516 78.852114 -145.801825 -8.955775 -14.143702 -6.793886 0.032906 -0.126820 0.001767 -0.643425 -58.146062 10.989742 -118.145989 82.071493 -122.389820 7.093937 -7.714664 6.226233 0.014660 0.171901 -0.015907
-71.643654 46.700850 -5.298847 175.729620 -30.772568 -2.938609 -0.301242 18.680453 1.100202 -0.063200 2.150370 0.144052 -0.093395 3.551818 0.231515 -0.315304 16.215396 1.026224 0.083757 16.941350 -2.348740 1.002354 -4.303460 -4.420604 1.177476 0.879925 -2.090944 6.081421 -7.351308 -15.967750 -43.602740 -54.721944 92.951306 -2.248627 4.557868 -20.160083 0.015285 -0.233540 2.764176 -7.638908 -3.475180 12.594047 61.673479 -69.687280 -100.016873 -0.335177 10.494691 12.246768 -5.258872 -55.945079 -5.516172 -155.710186 78.855040 -145.719875 -8.941677 -14.122843 -6.807684 0.040702 -0.139199 -0.003117 -0.648736 -58.154110 11.021293 -118.186545 82.071818 -122.424538 7.096721 -7.720900 6.219866 0.016438 0.174641 -0.017679
